<?xml version="1.0" standalone="no"?>
<svg xmlns:xlink="http://www.w3.org/1999/xlink" id="wave" style="transform:rotate(0deg); transition: 0.3s" viewBox="0 0 1440 490" version="1.1" xmlns="http://www.w3.org/2000/svg"><defs><linearGradient id="sw-gradient-0" x1="0" x2="0" y1="1" y2="0"><stop stop-color="rgba(104.24, 0, 166.526, 1)" offset="0%"/><stop stop-color="rgba(11, 31.836, 255, 1)" offset="100%"/></linearGradient></defs><path style="transform:translate(0, 0px); opacity:1" fill="url(#sw-gradient-0)" d="M0,147L120,122.5C240,98,480,49,720,65.3C960,82,1200,163,1440,236.8C1680,310,1920,376,2160,400.2C2400,425,2640,408,2880,383.8C3120,359,3360,327,3600,302.2C3840,278,4080,261,4320,236.8C4560,212,4800,180,5040,138.8C5280,98,5520,49,5760,49C6000,49,6240,98,6480,171.5C6720,245,6960,343,7200,392C7440,441,7680,441,7920,375.7C8160,310,8400,180,8640,138.8C8880,98,9120,147,9360,147C9600,147,9840,98,10080,138.8C10320,180,10560,310,10800,310.3C11040,310,11280,180,11520,163.3C11760,147,12000,245,12240,261.3C12480,278,12720,212,12960,171.5C13200,131,13440,114,13680,138.8C13920,163,14160,229,14400,245C14640,261,14880,229,15120,245C15360,261,15600,327,15840,302.2C16080,278,16320,163,16560,163.3C16800,163,17040,278,17160,334.8L17280,392L17280,490L17160,490C17040,490,16800,490,16560,490C16320,490,16080,490,15840,490C15600,490,15360,490,15120,490C14880,490,14640,490,14400,490C14160,490,13920,490,13680,490C13440,490,13200,490,12960,490C12720,490,12480,490,12240,490C12000,490,11760,490,11520,490C11280,490,11040,490,10800,490C10560,490,10320,490,10080,490C9840,490,9600,490,9360,490C9120,490,8880,490,8640,490C8400,490,8160,490,7920,490C7680,490,7440,490,7200,490C6960,490,6720,490,6480,490C6240,490,6000,490,5760,490C5520,490,5280,490,5040,490C4800,490,4560,490,4320,490C4080,490,3840,490,3600,490C3360,490,3120,490,2880,490C2640,490,2400,490,2160,490C1920,490,1680,490,1440,490C1200,490,960,490,720,490C480,490,240,490,120,490L0,490Z"/></svg>