<?xml version="1.0" standalone="no"?>
<svg xmlns:xlink="http://www.w3.org/1999/xlink" id="wave" style="transform:rotate(180deg); transition: 0.3s" viewBox="0 0 1440 490" version="1.1" xmlns="http://www.w3.org/2000/svg"><defs><linearGradient id="sw-gradient-0" x1="0" x2="0" y1="1" y2="0"><stop stop-color="rgba(218.399, 0, 253.043, 1)" offset="0%"/><stop stop-color="rgba(39.757, 11, 255, 1)" offset="100%"/></linearGradient></defs><path style="transform:translate(0, 0px); opacity:1" fill="url(#sw-gradient-0)" d="M0,147L48,171.5C96,196,192,245,288,269.5C384,294,480,294,576,294C672,294,768,294,864,269.5C960,245,1056,196,1152,179.7C1248,163,1344,180,1440,228.7C1536,278,1632,359,1728,375.7C1824,392,1920,343,2016,334.8C2112,327,2208,359,2304,351.2C2400,343,2496,294,2592,294C2688,294,2784,343,2880,367.5C2976,392,3072,392,3168,392C3264,392,3360,392,3456,359.3C3552,327,3648,261,3744,253.2C3840,245,3936,294,4032,310.3C4128,327,4224,310,4320,310.3C4416,310,4512,327,4608,310.3C4704,294,4800,245,4896,228.7C4992,212,5088,229,5184,212.3C5280,196,5376,147,5472,179.7C5568,212,5664,327,5760,326.7C5856,327,5952,212,6048,204.2C6144,196,6240,294,6336,277.7C6432,261,6528,131,6624,130.7C6720,131,6816,261,6864,326.7L6912,392L6912,490L6864,490C6816,490,6720,490,6624,490C6528,490,6432,490,6336,490C6240,490,6144,490,6048,490C5952,490,5856,490,5760,490C5664,490,5568,490,5472,490C5376,490,5280,490,5184,490C5088,490,4992,490,4896,490C4800,490,4704,490,4608,490C4512,490,4416,490,4320,490C4224,490,4128,490,4032,490C3936,490,3840,490,3744,490C3648,490,3552,490,3456,490C3360,490,3264,490,3168,490C3072,490,2976,490,2880,490C2784,490,2688,490,2592,490C2496,490,2400,490,2304,490C2208,490,2112,490,2016,490C1920,490,1824,490,1728,490C1632,490,1536,490,1440,490C1344,490,1248,490,1152,490C1056,490,960,490,864,490C768,490,672,490,576,490C480,490,384,490,288,490C192,490,96,490,48,490L0,490Z"/></svg>